<mxfile host="Electron" agent="Mozilla/5.0 (Windows NT 10.0; Win64; x64) AppleWebKit/537.36 (KHTML, like Gecko) draw.io/24.7.17 Chrome/128.0.6613.36 Electron/32.0.1 Safari/537.36" version="24.7.17">
  <diagram name="Page-1" id="dAhkONWOZzyPbj6_M4uj">
    <mxGraphModel dx="5804" dy="1710" grid="1" gridSize="10" guides="1" tooltips="1" connect="1" arrows="1" fold="1" page="0" pageScale="1" pageWidth="850" pageHeight="1100" math="0" shadow="0">
      <root>
        <mxCell id="0" />
        <mxCell id="1" parent="0" />
        <mxCell id="G13StT0oKIfuGTSCUn5N-1" value="&lt;font style=&quot;font-size: 32px;&quot;&gt;15&lt;/font&gt;" style="ellipse;whiteSpace=wrap;html=1;" parent="1" vertex="1">
          <mxGeometry x="430" y="-210" width="120" height="80" as="geometry" />
        </mxCell>
        <mxCell id="G13StT0oKIfuGTSCUn5N-2" value="&lt;font style=&quot;font-size: 32px;&quot;&gt;9&lt;/font&gt;" style="ellipse;whiteSpace=wrap;html=1;" parent="1" vertex="1">
          <mxGeometry x="80" y="110" width="120" height="80" as="geometry" />
        </mxCell>
        <mxCell id="G13StT0oKIfuGTSCUn5N-3" value="" style="endArrow=none;html=1;rounded=0;entryX=0;entryY=1;entryDx=0;entryDy=0;exitX=0.593;exitY=-0.022;exitDx=0;exitDy=0;exitPerimeter=0;" parent="1" source="G13StT0oKIfuGTSCUn5N-2" target="G13StT0oKIfuGTSCUn5N-1" edge="1">
          <mxGeometry width="50" height="50" relative="1" as="geometry">
            <mxPoint x="160" y="70" as="sourcePoint" />
            <mxPoint x="210" y="20" as="targetPoint" />
          </mxGeometry>
        </mxCell>
        <mxCell id="G13StT0oKIfuGTSCUn5N-5" value="" style="endArrow=none;html=1;rounded=0;exitX=0.419;exitY=-0.011;exitDx=0;exitDy=0;exitPerimeter=0;" parent="1" source="G13StT0oKIfuGTSCUn5N-17" target="G13StT0oKIfuGTSCUn5N-1" edge="1">
          <mxGeometry width="50" height="50" relative="1" as="geometry">
            <mxPoint x="785.9244832157342" y="117.0767953775212" as="sourcePoint" />
            <mxPoint x="440" y="10" as="targetPoint" />
          </mxGeometry>
        </mxCell>
        <mxCell id="G13StT0oKIfuGTSCUn5N-11" value="&lt;font style=&quot;font-size: 32px;&quot;&gt;6&lt;/font&gt;" style="ellipse;whiteSpace=wrap;html=1;" parent="1" vertex="1">
          <mxGeometry x="-230" y="300" width="120" height="80" as="geometry" />
        </mxCell>
        <mxCell id="G13StT0oKIfuGTSCUn5N-12" value="" style="endArrow=none;html=1;rounded=0;entryX=0;entryY=1;entryDx=0;entryDy=0;exitX=0.593;exitY=-0.022;exitDx=0;exitDy=0;exitPerimeter=0;" parent="1" source="G13StT0oKIfuGTSCUn5N-11" target="G13StT0oKIfuGTSCUn5N-2" edge="1">
          <mxGeometry width="50" height="50" relative="1" as="geometry">
            <mxPoint x="-40" y="420" as="sourcePoint" />
            <mxPoint x="67.57359312880749" y="358.2842712474617" as="targetPoint" />
          </mxGeometry>
        </mxCell>
        <mxCell id="G13StT0oKIfuGTSCUn5N-13" value="&lt;font style=&quot;font-size: 32px;&quot;&gt;14&lt;/font&gt;" style="ellipse;whiteSpace=wrap;html=1;" parent="1" vertex="1">
          <mxGeometry x="240" y="280" width="120" height="80" as="geometry" />
        </mxCell>
        <mxCell id="G13StT0oKIfuGTSCUn5N-14" value="" style="endArrow=none;html=1;rounded=0;entryX=1;entryY=1;entryDx=0;entryDy=0;" parent="1" source="G13StT0oKIfuGTSCUn5N-13" target="G13StT0oKIfuGTSCUn5N-2" edge="1">
          <mxGeometry width="50" height="50" relative="1" as="geometry">
            <mxPoint x="110" y="500" as="sourcePoint" />
            <mxPoint x="143.2820117735139" y="363.28201177351366" as="targetPoint" />
          </mxGeometry>
        </mxCell>
        <mxCell id="G13StT0oKIfuGTSCUn5N-15" value="&lt;font style=&quot;font-size: 32px;&quot;&gt;13&lt;/font&gt;" style="ellipse;whiteSpace=wrap;html=1;" parent="1" vertex="1">
          <mxGeometry x="130" y="505" width="120" height="80" as="geometry" />
        </mxCell>
        <mxCell id="G13StT0oKIfuGTSCUn5N-16" value="" style="endArrow=none;html=1;rounded=0;exitX=0.638;exitY=-0.036;exitDx=0;exitDy=0;exitPerimeter=0;" parent="1" source="G13StT0oKIfuGTSCUn5N-15" target="G13StT0oKIfuGTSCUn5N-13" edge="1">
          <mxGeometry width="50" height="50" relative="1" as="geometry">
            <mxPoint x="169" y="457" as="sourcePoint" />
            <mxPoint x="80" y="350" as="targetPoint" />
          </mxGeometry>
        </mxCell>
        <mxCell id="G13StT0oKIfuGTSCUn5N-17" value="&lt;font style=&quot;font-size: 32px;&quot;&gt;20&lt;/font&gt;" style="ellipse;whiteSpace=wrap;html=1;" parent="1" vertex="1">
          <mxGeometry x="840" y="90" width="120" height="80" as="geometry" />
        </mxCell>
        <mxCell id="G13StT0oKIfuGTSCUn5N-18" value="&lt;font style=&quot;font-size: 32px;&quot;&gt;17&lt;/font&gt;" style="ellipse;whiteSpace=wrap;html=1;" parent="1" vertex="1">
          <mxGeometry x="650" y="270" width="120" height="80" as="geometry" />
        </mxCell>
        <mxCell id="G13StT0oKIfuGTSCUn5N-19" value="" style="endArrow=none;html=1;rounded=0;entryX=0;entryY=1;entryDx=0;entryDy=0;exitX=0.593;exitY=-0.022;exitDx=0;exitDy=0;exitPerimeter=0;" parent="1" source="G13StT0oKIfuGTSCUn5N-18" target="G13StT0oKIfuGTSCUn5N-17" edge="1">
          <mxGeometry width="50" height="50" relative="1" as="geometry">
            <mxPoint x="720" y="400" as="sourcePoint" />
            <mxPoint x="827.5735931288075" y="338.2842712474617" as="targetPoint" />
          </mxGeometry>
        </mxCell>
        <mxCell id="G13StT0oKIfuGTSCUn5N-20" value="&lt;font style=&quot;font-size: 32px;&quot;&gt;64&lt;/font&gt;" style="ellipse;whiteSpace=wrap;html=1;" parent="1" vertex="1">
          <mxGeometry x="1000" y="260" width="120" height="80" as="geometry" />
        </mxCell>
        <mxCell id="G13StT0oKIfuGTSCUn5N-21" value="" style="endArrow=none;html=1;rounded=0;entryX=1;entryY=1;entryDx=0;entryDy=0;" parent="1" source="G13StT0oKIfuGTSCUn5N-20" target="G13StT0oKIfuGTSCUn5N-17" edge="1">
          <mxGeometry width="50" height="50" relative="1" as="geometry">
            <mxPoint x="870" y="480" as="sourcePoint" />
            <mxPoint x="903.2820117735139" y="343.28201177351366" as="targetPoint" />
          </mxGeometry>
        </mxCell>
        <mxCell id="G13StT0oKIfuGTSCUn5N-22" value="&lt;font style=&quot;font-size: 32px;&quot;&gt;26&lt;/font&gt;" style="ellipse;whiteSpace=wrap;html=1;" parent="1" vertex="1">
          <mxGeometry x="860" y="505" width="120" height="80" as="geometry" />
        </mxCell>
        <mxCell id="G13StT0oKIfuGTSCUn5N-23" value="&lt;font style=&quot;font-size: 32px;&quot;&gt;72&lt;/font&gt;" style="ellipse;whiteSpace=wrap;html=1;" parent="1" vertex="1">
          <mxGeometry x="1210" y="495" width="120" height="80" as="geometry" />
        </mxCell>
        <mxCell id="G13StT0oKIfuGTSCUn5N-24" value="" style="endArrow=none;html=1;rounded=0;entryX=0.229;entryY=0.904;entryDx=0;entryDy=0;entryPerimeter=0;" parent="1" target="G13StT0oKIfuGTSCUn5N-20" edge="1">
          <mxGeometry width="50" height="50" relative="1" as="geometry">
            <mxPoint x="930" y="500" as="sourcePoint" />
            <mxPoint x="1007" y="380" as="targetPoint" />
          </mxGeometry>
        </mxCell>
        <mxCell id="G13StT0oKIfuGTSCUn5N-25" value="" style="endArrow=none;html=1;rounded=0;entryX=0.762;entryY=0.932;entryDx=0;entryDy=0;entryPerimeter=0;exitX=0.5;exitY=0;exitDx=0;exitDy=0;" parent="1" source="G13StT0oKIfuGTSCUn5N-23" target="G13StT0oKIfuGTSCUn5N-20" edge="1">
          <mxGeometry width="50" height="50" relative="1" as="geometry">
            <mxPoint x="1050" y="538" as="sourcePoint" />
            <mxPoint x="1147" y="370" as="targetPoint" />
          </mxGeometry>
        </mxCell>
        <mxCell id="JXLY37pRRViEFZyJxpVm-2" value="" style="rounded=1;whiteSpace=wrap;html=1;" vertex="1" parent="1">
          <mxGeometry x="1660" y="-290" width="300" height="1040" as="geometry" />
        </mxCell>
        <mxCell id="JXLY37pRRViEFZyJxpVm-4" value="PILA" style="text;strokeColor=none;fillColor=none;html=1;fontSize=24;fontStyle=1;verticalAlign=middle;align=center;" vertex="1" parent="1">
          <mxGeometry x="1680" y="-360" width="240" height="70" as="geometry" />
        </mxCell>
        <mxCell id="JXLY37pRRViEFZyJxpVm-8" value="" style="rounded=1;whiteSpace=wrap;html=1;" vertex="1" parent="1">
          <mxGeometry x="1130" y="-200" width="280" height="180" as="geometry" />
        </mxCell>
        <mxCell id="JXLY37pRRViEFZyJxpVm-9" value="Nodo" style="text;strokeColor=none;fillColor=none;html=1;fontSize=24;fontStyle=1;verticalAlign=middle;align=center;" vertex="1" parent="1">
          <mxGeometry x="1200" y="-260" width="100" height="40" as="geometry" />
        </mxCell>
        <mxCell id="JXLY37pRRViEFZyJxpVm-11" value="&lt;font style=&quot;font-size: 32px;&quot;&gt;7&lt;/font&gt;" style="ellipse;whiteSpace=wrap;html=1;" vertex="1" parent="1">
          <mxGeometry x="-120" y="520" width="120" height="80" as="geometry" />
        </mxCell>
        <mxCell id="JXLY37pRRViEFZyJxpVm-12" value="" style="endArrow=none;html=1;rounded=0;exitX=0.308;exitY=-0.031;exitDx=0;exitDy=0;exitPerimeter=0;entryX=1;entryY=1;entryDx=0;entryDy=0;" edge="1" parent="1" source="JXLY37pRRViEFZyJxpVm-11" target="G13StT0oKIfuGTSCUn5N-11">
          <mxGeometry width="50" height="50" relative="1" as="geometry">
            <mxPoint x="-20" y="524" as="sourcePoint" />
            <mxPoint x="54" y="380" as="targetPoint" />
          </mxGeometry>
        </mxCell>
        <mxCell id="JXLY37pRRViEFZyJxpVm-22" value="" style="endArrow=classic;html=1;rounded=0;strokeWidth=12;" edge="1" parent="1">
          <mxGeometry width="50" height="50" relative="1" as="geometry">
            <mxPoint x="-450" y="180" as="sourcePoint" />
            <mxPoint x="-240" y="280" as="targetPoint" />
          </mxGeometry>
        </mxCell>
        <mxCell id="JXLY37pRRViEFZyJxpVm-39" value="&lt;font style=&quot;font-size: 32px;&quot;&gt;20&lt;/font&gt;" style="ellipse;whiteSpace=wrap;html=1;" vertex="1" parent="1">
          <mxGeometry x="840" y="90" width="120" height="80" as="geometry" />
        </mxCell>
        <mxCell id="JXLY37pRRViEFZyJxpVm-51" value="&lt;font style=&quot;font-size: 32px;&quot;&gt;15&lt;/font&gt;" style="ellipse;whiteSpace=wrap;html=1;" vertex="1" parent="1">
          <mxGeometry x="1780" y="600" width="120" height="80" as="geometry" />
        </mxCell>
        <mxCell id="JXLY37pRRViEFZyJxpVm-52" value="&lt;font style=&quot;font-size: 32px;&quot;&gt;9&lt;/font&gt;" style="ellipse;whiteSpace=wrap;html=1;" vertex="1" parent="1">
          <mxGeometry x="1750" y="480" width="120" height="80" as="geometry" />
        </mxCell>
        <mxCell id="JXLY37pRRViEFZyJxpVm-53" value="&lt;font style=&quot;font-size: 32px;&quot;&gt;6&lt;/font&gt;" style="ellipse;whiteSpace=wrap;html=1;" vertex="1" parent="1">
          <mxGeometry x="1740" y="370" width="120" height="80" as="geometry" />
        </mxCell>
        <mxCell id="JXLY37pRRViEFZyJxpVm-54" value="" style="ellipse;whiteSpace=wrap;html=1;" vertex="1" parent="1">
          <mxGeometry x="110" y="1630" width="470" height="270" as="geometry" />
        </mxCell>
        <mxCell id="JXLY37pRRViEFZyJxpVm-55" value="" style="endArrow=none;html=1;rounded=0;entryX=1;entryY=0.5;entryDx=0;entryDy=0;exitX=0;exitY=0.5;exitDx=0;exitDy=0;" edge="1" parent="1" source="JXLY37pRRViEFZyJxpVm-54" target="JXLY37pRRViEFZyJxpVm-54">
          <mxGeometry width="50" height="50" relative="1" as="geometry">
            <mxPoint x="120" y="1770" as="sourcePoint" />
            <mxPoint x="370" y="1730" as="targetPoint" />
          </mxGeometry>
        </mxCell>
        <mxCell id="JXLY37pRRViEFZyJxpVm-56" value="&lt;span style=&quot;font-size: 80px;&quot;&gt;z&lt;/span&gt;" style="text;html=1;align=center;verticalAlign=middle;whiteSpace=wrap;rounded=0;" vertex="1" parent="1">
          <mxGeometry x="270" y="1670" width="150" height="60" as="geometry" />
        </mxCell>
        <mxCell id="JXLY37pRRViEFZyJxpVm-57" value="&lt;font style=&quot;font-size: 80px;&quot;&gt;100&lt;/font&gt;" style="text;html=1;align=center;verticalAlign=middle;whiteSpace=wrap;rounded=0;" vertex="1" parent="1">
          <mxGeometry x="270" y="1800" width="150" height="60" as="geometry" />
        </mxCell>
        <mxCell id="JXLY37pRRViEFZyJxpVm-62" value="" style="ellipse;whiteSpace=wrap;html=1;" vertex="1" parent="1">
          <mxGeometry x="-960" y="2060" width="470" height="270" as="geometry" />
        </mxCell>
        <mxCell id="JXLY37pRRViEFZyJxpVm-63" value="" style="endArrow=none;html=1;rounded=0;entryX=1;entryY=0.5;entryDx=0;entryDy=0;exitX=0;exitY=0.5;exitDx=0;exitDy=0;" edge="1" source="JXLY37pRRViEFZyJxpVm-62" target="JXLY37pRRViEFZyJxpVm-62" parent="1">
          <mxGeometry width="50" height="50" relative="1" as="geometry">
            <mxPoint x="-950" y="2200" as="sourcePoint" />
            <mxPoint x="-700" y="2160" as="targetPoint" />
          </mxGeometry>
        </mxCell>
        <mxCell id="JXLY37pRRViEFZyJxpVm-64" value="&lt;font style=&quot;font-size: 80px;&quot;&gt;z&lt;/font&gt;" style="text;html=1;align=center;verticalAlign=middle;whiteSpace=wrap;rounded=0;" vertex="1" parent="1">
          <mxGeometry x="-800" y="2100" width="150" height="60" as="geometry" />
        </mxCell>
        <mxCell id="JXLY37pRRViEFZyJxpVm-65" value="&lt;span style=&quot;font-size: 80px;&quot;&gt;50&lt;/span&gt;" style="text;html=1;align=center;verticalAlign=middle;whiteSpace=wrap;rounded=0;" vertex="1" parent="1">
          <mxGeometry x="-800" y="2230" width="150" height="60" as="geometry" />
        </mxCell>
        <mxCell id="JXLY37pRRViEFZyJxpVm-66" value="" style="ellipse;whiteSpace=wrap;html=1;" vertex="1" parent="1">
          <mxGeometry x="1060" y="2050" width="470" height="270" as="geometry" />
        </mxCell>
        <mxCell id="JXLY37pRRViEFZyJxpVm-67" value="" style="endArrow=none;html=1;rounded=0;entryX=1;entryY=0.5;entryDx=0;entryDy=0;exitX=0;exitY=0.5;exitDx=0;exitDy=0;" edge="1" source="JXLY37pRRViEFZyJxpVm-66" target="JXLY37pRRViEFZyJxpVm-66" parent="1">
          <mxGeometry width="50" height="50" relative="1" as="geometry">
            <mxPoint x="1070" y="2190" as="sourcePoint" />
            <mxPoint x="1320" y="2150" as="targetPoint" />
          </mxGeometry>
        </mxCell>
        <mxCell id="JXLY37pRRViEFZyJxpVm-68" value="&lt;span style=&quot;font-size: 80px;&quot;&gt;E&lt;/span&gt;" style="text;html=1;align=center;verticalAlign=middle;whiteSpace=wrap;rounded=0;" vertex="1" parent="1">
          <mxGeometry x="1220" y="2090" width="150" height="60" as="geometry" />
        </mxCell>
        <mxCell id="JXLY37pRRViEFZyJxpVm-69" value="&lt;span style=&quot;font-size: 80px;&quot;&gt;200&lt;/span&gt;" style="text;html=1;align=center;verticalAlign=middle;whiteSpace=wrap;rounded=0;" vertex="1" parent="1">
          <mxGeometry x="1220" y="2220" width="150" height="60" as="geometry" />
        </mxCell>
        <mxCell id="JXLY37pRRViEFZyJxpVm-70" value="" style="ellipse;whiteSpace=wrap;html=1;" vertex="1" parent="1">
          <mxGeometry x="-1480" y="2540" width="470" height="270" as="geometry" />
        </mxCell>
        <mxCell id="JXLY37pRRViEFZyJxpVm-71" value="" style="endArrow=none;html=1;rounded=0;entryX=1;entryY=0.5;entryDx=0;entryDy=0;exitX=0;exitY=0.5;exitDx=0;exitDy=0;" edge="1" source="JXLY37pRRViEFZyJxpVm-70" target="JXLY37pRRViEFZyJxpVm-70" parent="1">
          <mxGeometry width="50" height="50" relative="1" as="geometry">
            <mxPoint x="-1470" y="2680" as="sourcePoint" />
            <mxPoint x="-1220" y="2640" as="targetPoint" />
          </mxGeometry>
        </mxCell>
        <mxCell id="JXLY37pRRViEFZyJxpVm-72" value="&lt;span style=&quot;font-size: 80px;&quot;&gt;E&lt;/span&gt;" style="text;html=1;align=center;verticalAlign=middle;whiteSpace=wrap;rounded=0;" vertex="1" parent="1">
          <mxGeometry x="-1320" y="2580" width="150" height="60" as="geometry" />
        </mxCell>
        <mxCell id="JXLY37pRRViEFZyJxpVm-73" value="&lt;span style=&quot;font-size: 80px;&quot;&gt;100&lt;/span&gt;" style="text;html=1;align=center;verticalAlign=middle;whiteSpace=wrap;rounded=0;" vertex="1" parent="1">
          <mxGeometry x="-1320" y="2710" width="150" height="60" as="geometry" />
        </mxCell>
        <mxCell id="JXLY37pRRViEFZyJxpVm-74" value="" style="ellipse;whiteSpace=wrap;html=1;" vertex="1" parent="1">
          <mxGeometry x="-470" y="2530" width="470" height="270" as="geometry" />
        </mxCell>
        <mxCell id="JXLY37pRRViEFZyJxpVm-75" value="" style="endArrow=none;html=1;rounded=0;entryX=1;entryY=0.5;entryDx=0;entryDy=0;exitX=0;exitY=0.5;exitDx=0;exitDy=0;" edge="1" source="JXLY37pRRViEFZyJxpVm-74" target="JXLY37pRRViEFZyJxpVm-74" parent="1">
          <mxGeometry width="50" height="50" relative="1" as="geometry">
            <mxPoint x="-460" y="2670" as="sourcePoint" />
            <mxPoint x="-210" y="2630" as="targetPoint" />
          </mxGeometry>
        </mxCell>
        <mxCell id="JXLY37pRRViEFZyJxpVm-76" value="&lt;span style=&quot;font-size: 80px;&quot;&gt;S&lt;/span&gt;" style="text;html=1;align=center;verticalAlign=middle;whiteSpace=wrap;rounded=0;" vertex="1" parent="1">
          <mxGeometry x="-310" y="2570" width="150" height="60" as="geometry" />
        </mxCell>
        <mxCell id="JXLY37pRRViEFZyJxpVm-77" value="&lt;span style=&quot;font-size: 80px;&quot;&gt;100&lt;/span&gt;" style="text;html=1;align=center;verticalAlign=middle;whiteSpace=wrap;rounded=0;" vertex="1" parent="1">
          <mxGeometry x="-310" y="2700" width="150" height="60" as="geometry" />
        </mxCell>
        <mxCell id="JXLY37pRRViEFZyJxpVm-78" value="" style="ellipse;whiteSpace=wrap;html=1;" vertex="1" parent="1">
          <mxGeometry x="600" y="2510" width="470" height="270" as="geometry" />
        </mxCell>
        <mxCell id="JXLY37pRRViEFZyJxpVm-79" value="" style="endArrow=none;html=1;rounded=0;entryX=1;entryY=0.5;entryDx=0;entryDy=0;exitX=0;exitY=0.5;exitDx=0;exitDy=0;" edge="1" source="JXLY37pRRViEFZyJxpVm-78" target="JXLY37pRRViEFZyJxpVm-78" parent="1">
          <mxGeometry width="50" height="50" relative="1" as="geometry">
            <mxPoint x="610" y="2650" as="sourcePoint" />
            <mxPoint x="860" y="2610" as="targetPoint" />
          </mxGeometry>
        </mxCell>
        <mxCell id="JXLY37pRRViEFZyJxpVm-80" value="&lt;span style=&quot;font-size: 80px;&quot;&gt;S&lt;/span&gt;" style="text;html=1;align=center;verticalAlign=middle;whiteSpace=wrap;rounded=0;" vertex="1" parent="1">
          <mxGeometry x="760" y="2550" width="150" height="60" as="geometry" />
        </mxCell>
        <mxCell id="JXLY37pRRViEFZyJxpVm-81" value="&lt;span style=&quot;font-size: 80px;&quot;&gt;200&lt;/span&gt;" style="text;html=1;align=center;verticalAlign=middle;whiteSpace=wrap;rounded=0;" vertex="1" parent="1">
          <mxGeometry x="760" y="2680" width="150" height="60" as="geometry" />
        </mxCell>
        <mxCell id="JXLY37pRRViEFZyJxpVm-82" value="" style="ellipse;whiteSpace=wrap;html=1;" vertex="1" parent="1">
          <mxGeometry x="1660" y="2480" width="470" height="270" as="geometry" />
        </mxCell>
        <mxCell id="JXLY37pRRViEFZyJxpVm-83" value="" style="endArrow=none;html=1;rounded=0;entryX=1;entryY=0.5;entryDx=0;entryDy=0;exitX=0;exitY=0.5;exitDx=0;exitDy=0;" edge="1" source="JXLY37pRRViEFZyJxpVm-82" target="JXLY37pRRViEFZyJxpVm-82" parent="1">
          <mxGeometry width="50" height="50" relative="1" as="geometry">
            <mxPoint x="1670" y="2620" as="sourcePoint" />
            <mxPoint x="1920" y="2580" as="targetPoint" />
          </mxGeometry>
        </mxCell>
        <mxCell id="JXLY37pRRViEFZyJxpVm-84" value="&lt;span style=&quot;font-size: 80px;&quot;&gt;S&lt;/span&gt;" style="text;html=1;align=center;verticalAlign=middle;whiteSpace=wrap;rounded=0;" vertex="1" parent="1">
          <mxGeometry x="1820" y="2520" width="150" height="60" as="geometry" />
        </mxCell>
        <mxCell id="JXLY37pRRViEFZyJxpVm-85" value="&lt;span style=&quot;font-size: 80px;&quot;&gt;150&lt;/span&gt;" style="text;html=1;align=center;verticalAlign=middle;whiteSpace=wrap;rounded=0;" vertex="1" parent="1">
          <mxGeometry x="1820" y="2650" width="150" height="60" as="geometry" />
        </mxCell>
        <mxCell id="JXLY37pRRViEFZyJxpVm-86" value="" style="ellipse;whiteSpace=wrap;html=1;" vertex="1" parent="1">
          <mxGeometry x="260" y="2990" width="470" height="270" as="geometry" />
        </mxCell>
        <mxCell id="JXLY37pRRViEFZyJxpVm-87" value="" style="endArrow=none;html=1;rounded=0;entryX=1;entryY=0.5;entryDx=0;entryDy=0;exitX=0;exitY=0.5;exitDx=0;exitDy=0;" edge="1" source="JXLY37pRRViEFZyJxpVm-86" target="JXLY37pRRViEFZyJxpVm-86" parent="1">
          <mxGeometry width="50" height="50" relative="1" as="geometry">
            <mxPoint x="270" y="3130" as="sourcePoint" />
            <mxPoint x="520" y="3090" as="targetPoint" />
          </mxGeometry>
        </mxCell>
        <mxCell id="JXLY37pRRViEFZyJxpVm-88" value="&lt;span style=&quot;font-size: 80px;&quot;&gt;S&lt;/span&gt;" style="text;html=1;align=center;verticalAlign=middle;whiteSpace=wrap;rounded=0;" vertex="1" parent="1">
          <mxGeometry x="420" y="3030" width="150" height="60" as="geometry" />
        </mxCell>
        <mxCell id="JXLY37pRRViEFZyJxpVm-89" value="&lt;span style=&quot;font-size: 80px;&quot;&gt;100&lt;/span&gt;" style="text;html=1;align=center;verticalAlign=middle;whiteSpace=wrap;rounded=0;" vertex="1" parent="1">
          <mxGeometry x="420" y="3160" width="150" height="60" as="geometry" />
        </mxCell>
        <mxCell id="JXLY37pRRViEFZyJxpVm-90" value="" style="ellipse;whiteSpace=wrap;html=1;" vertex="1" parent="1">
          <mxGeometry x="1040" y="2990" width="470" height="270" as="geometry" />
        </mxCell>
        <mxCell id="JXLY37pRRViEFZyJxpVm-91" value="" style="endArrow=none;html=1;rounded=0;entryX=1;entryY=0.5;entryDx=0;entryDy=0;exitX=0;exitY=0.5;exitDx=0;exitDy=0;" edge="1" source="JXLY37pRRViEFZyJxpVm-90" target="JXLY37pRRViEFZyJxpVm-90" parent="1">
          <mxGeometry width="50" height="50" relative="1" as="geometry">
            <mxPoint x="1050" y="3130" as="sourcePoint" />
            <mxPoint x="1300" y="3090" as="targetPoint" />
          </mxGeometry>
        </mxCell>
        <mxCell id="JXLY37pRRViEFZyJxpVm-92" value="&lt;span style=&quot;font-size: 80px;&quot;&gt;E&lt;/span&gt;" style="text;html=1;align=center;verticalAlign=middle;whiteSpace=wrap;rounded=0;" vertex="1" parent="1">
          <mxGeometry x="1200" y="3030" width="150" height="60" as="geometry" />
        </mxCell>
        <mxCell id="JXLY37pRRViEFZyJxpVm-93" value="&lt;span style=&quot;font-size: 80px;&quot;&gt;200&lt;/span&gt;" style="text;html=1;align=center;verticalAlign=middle;whiteSpace=wrap;rounded=0;" vertex="1" parent="1">
          <mxGeometry x="1200" y="3160" width="150" height="60" as="geometry" />
        </mxCell>
        <mxCell id="JXLY37pRRViEFZyJxpVm-104" value="" style="ellipse;whiteSpace=wrap;html=1;" vertex="1" parent="1">
          <mxGeometry x="-1910" y="2970" width="470" height="270" as="geometry" />
        </mxCell>
        <mxCell id="JXLY37pRRViEFZyJxpVm-105" value="" style="endArrow=none;html=1;rounded=0;entryX=1;entryY=0.5;entryDx=0;entryDy=0;exitX=0;exitY=0.5;exitDx=0;exitDy=0;" edge="1" source="JXLY37pRRViEFZyJxpVm-104" target="JXLY37pRRViEFZyJxpVm-104" parent="1">
          <mxGeometry width="50" height="50" relative="1" as="geometry">
            <mxPoint x="-1900" y="3110" as="sourcePoint" />
            <mxPoint x="-1650" y="3070" as="targetPoint" />
          </mxGeometry>
        </mxCell>
        <mxCell id="JXLY37pRRViEFZyJxpVm-106" value="&lt;span style=&quot;font-size: 80px;&quot;&gt;S&lt;/span&gt;" style="text;html=1;align=center;verticalAlign=middle;whiteSpace=wrap;rounded=0;" vertex="1" parent="1">
          <mxGeometry x="-1750" y="3010" width="150" height="60" as="geometry" />
        </mxCell>
        <mxCell id="JXLY37pRRViEFZyJxpVm-107" value="&lt;span style=&quot;font-size: 80px;&quot;&gt;50&lt;/span&gt;" style="text;html=1;align=center;verticalAlign=middle;whiteSpace=wrap;rounded=0;" vertex="1" parent="1">
          <mxGeometry x="-1750" y="3140" width="150" height="60" as="geometry" />
        </mxCell>
        <mxCell id="JXLY37pRRViEFZyJxpVm-108" value="" style="ellipse;whiteSpace=wrap;html=1;" vertex="1" parent="1">
          <mxGeometry x="-1140" y="2960" width="470" height="270" as="geometry" />
        </mxCell>
        <mxCell id="JXLY37pRRViEFZyJxpVm-109" value="" style="endArrow=none;html=1;rounded=0;entryX=1;entryY=0.5;entryDx=0;entryDy=0;exitX=0;exitY=0.5;exitDx=0;exitDy=0;" edge="1" source="JXLY37pRRViEFZyJxpVm-108" target="JXLY37pRRViEFZyJxpVm-108" parent="1">
          <mxGeometry width="50" height="50" relative="1" as="geometry">
            <mxPoint x="-1130" y="3100" as="sourcePoint" />
            <mxPoint x="-880" y="3060" as="targetPoint" />
          </mxGeometry>
        </mxCell>
        <mxCell id="JXLY37pRRViEFZyJxpVm-110" value="&lt;span style=&quot;font-size: 80px;&quot;&gt;z&lt;/span&gt;" style="text;html=1;align=center;verticalAlign=middle;whiteSpace=wrap;rounded=0;" vertex="1" parent="1">
          <mxGeometry x="-980" y="3000" width="150" height="60" as="geometry" />
        </mxCell>
        <mxCell id="JXLY37pRRViEFZyJxpVm-111" value="&lt;span style=&quot;font-size: 80px;&quot;&gt;200&lt;/span&gt;" style="text;html=1;align=center;verticalAlign=middle;whiteSpace=wrap;rounded=0;" vertex="1" parent="1">
          <mxGeometry x="-980" y="3130" width="150" height="60" as="geometry" />
        </mxCell>
        <mxCell id="JXLY37pRRViEFZyJxpVm-112" value="" style="ellipse;whiteSpace=wrap;html=1;" vertex="1" parent="1">
          <mxGeometry x="-1240" y="3440" width="470" height="270" as="geometry" />
        </mxCell>
        <mxCell id="JXLY37pRRViEFZyJxpVm-113" value="" style="endArrow=none;html=1;rounded=0;entryX=1;entryY=0.5;entryDx=0;entryDy=0;exitX=0;exitY=0.5;exitDx=0;exitDy=0;" edge="1" source="JXLY37pRRViEFZyJxpVm-112" target="JXLY37pRRViEFZyJxpVm-112" parent="1">
          <mxGeometry width="50" height="50" relative="1" as="geometry">
            <mxPoint x="-1230" y="3580" as="sourcePoint" />
            <mxPoint x="-980" y="3540" as="targetPoint" />
          </mxGeometry>
        </mxCell>
        <mxCell id="JXLY37pRRViEFZyJxpVm-114" value="&lt;span style=&quot;font-size: 80px;&quot;&gt;E&lt;/span&gt;" style="text;html=1;align=center;verticalAlign=middle;whiteSpace=wrap;rounded=0;" vertex="1" parent="1">
          <mxGeometry x="-1080" y="3480" width="150" height="60" as="geometry" />
        </mxCell>
        <mxCell id="JXLY37pRRViEFZyJxpVm-115" value="&lt;span style=&quot;font-size: 80px;&quot;&gt;100&lt;/span&gt;" style="text;html=1;align=center;verticalAlign=middle;whiteSpace=wrap;rounded=0;" vertex="1" parent="1">
          <mxGeometry x="-1080" y="3610" width="150" height="60" as="geometry" />
        </mxCell>
        <mxCell id="JXLY37pRRViEFZyJxpVm-116" value="" style="ellipse;whiteSpace=wrap;html=1;" vertex="1" parent="1">
          <mxGeometry x="-2330" y="3420" width="470" height="270" as="geometry" />
        </mxCell>
        <mxCell id="JXLY37pRRViEFZyJxpVm-117" value="" style="endArrow=none;html=1;rounded=0;entryX=1;entryY=0.5;entryDx=0;entryDy=0;exitX=0;exitY=0.5;exitDx=0;exitDy=0;" edge="1" source="JXLY37pRRViEFZyJxpVm-116" target="JXLY37pRRViEFZyJxpVm-116" parent="1">
          <mxGeometry width="50" height="50" relative="1" as="geometry">
            <mxPoint x="-2320" y="3560" as="sourcePoint" />
            <mxPoint x="-2070" y="3520" as="targetPoint" />
          </mxGeometry>
        </mxCell>
        <mxCell id="JXLY37pRRViEFZyJxpVm-118" value="&lt;span style=&quot;font-size: 80px;&quot;&gt;E&lt;/span&gt;" style="text;html=1;align=center;verticalAlign=middle;whiteSpace=wrap;rounded=0;" vertex="1" parent="1">
          <mxGeometry x="-2170" y="3460" width="150" height="60" as="geometry" />
        </mxCell>
        <mxCell id="JXLY37pRRViEFZyJxpVm-119" value="&lt;span style=&quot;font-size: 80px;&quot;&gt;50&lt;/span&gt;" style="text;html=1;align=center;verticalAlign=middle;whiteSpace=wrap;rounded=0;" vertex="1" parent="1">
          <mxGeometry x="-2170" y="3590" width="150" height="60" as="geometry" />
        </mxCell>
        <mxCell id="JXLY37pRRViEFZyJxpVm-120" value="" style="endArrow=none;html=1;rounded=0;strokeWidth=5;entryX=0.246;entryY=0.953;entryDx=0;entryDy=0;entryPerimeter=0;exitX=0.697;exitY=0.033;exitDx=0;exitDy=0;exitPerimeter=0;" edge="1" parent="1" source="JXLY37pRRViEFZyJxpVm-116" target="JXLY37pRRViEFZyJxpVm-104">
          <mxGeometry width="50" height="50" relative="1" as="geometry">
            <mxPoint x="-1940" y="3380" as="sourcePoint" />
            <mxPoint x="-1820" y="3220" as="targetPoint" />
          </mxGeometry>
        </mxCell>
        <mxCell id="JXLY37pRRViEFZyJxpVm-121" value="" style="endArrow=none;html=1;rounded=0;strokeWidth=5;entryX=0.303;entryY=0.966;entryDx=0;entryDy=0;entryPerimeter=0;exitX=0.5;exitY=0;exitDx=0;exitDy=0;" edge="1" parent="1" source="JXLY37pRRViEFZyJxpVm-112" target="JXLY37pRRViEFZyJxpVm-108">
          <mxGeometry width="50" height="50" relative="1" as="geometry">
            <mxPoint x="-1390" y="3492" as="sourcePoint" />
            <mxPoint x="-1182" y="3290" as="targetPoint" />
          </mxGeometry>
        </mxCell>
        <mxCell id="JXLY37pRRViEFZyJxpVm-122" value="" style="endArrow=none;html=1;rounded=0;strokeWidth=5;exitX=0.709;exitY=0.034;exitDx=0;exitDy=0;entryX=0.274;entryY=0.963;entryDx=0;entryDy=0;entryPerimeter=0;exitPerimeter=0;" edge="1" parent="1" source="JXLY37pRRViEFZyJxpVm-104" target="JXLY37pRRViEFZyJxpVm-70">
          <mxGeometry width="50" height="50" relative="1" as="geometry">
            <mxPoint x="-1360" y="3039" as="sourcePoint" />
            <mxPoint x="-1360" y="2810" as="targetPoint" />
          </mxGeometry>
        </mxCell>
        <mxCell id="JXLY37pRRViEFZyJxpVm-123" value="" style="endArrow=none;html=1;rounded=0;strokeWidth=5;exitX=0.362;exitY=0;exitDx=0;exitDy=0;entryX=1;entryY=1;entryDx=0;entryDy=0;exitPerimeter=0;" edge="1" parent="1" source="JXLY37pRRViEFZyJxpVm-108" target="JXLY37pRRViEFZyJxpVm-70">
          <mxGeometry width="50" height="50" relative="1" as="geometry">
            <mxPoint x="-1290" y="3039" as="sourcePoint" />
            <mxPoint x="-1064" y="2860" as="targetPoint" />
          </mxGeometry>
        </mxCell>
        <mxCell id="JXLY37pRRViEFZyJxpVm-124" value="" style="endArrow=none;html=1;rounded=0;strokeWidth=5;exitX=0.55;exitY=0.009;exitDx=0;exitDy=0;entryX=0.186;entryY=0.898;entryDx=0;entryDy=0;exitPerimeter=0;entryPerimeter=0;" edge="1" parent="1" source="JXLY37pRRViEFZyJxpVm-70" target="JXLY37pRRViEFZyJxpVm-62">
          <mxGeometry width="50" height="50" relative="1" as="geometry">
            <mxPoint x="-891" y="2570" as="sourcePoint" />
            <mxPoint x="-1000" y="2380" as="targetPoint" />
          </mxGeometry>
        </mxCell>
        <mxCell id="JXLY37pRRViEFZyJxpVm-125" value="" style="endArrow=none;html=1;rounded=0;strokeWidth=5;entryX=1;entryY=1;entryDx=0;entryDy=0;" edge="1" parent="1" source="JXLY37pRRViEFZyJxpVm-74" target="JXLY37pRRViEFZyJxpVm-62">
          <mxGeometry width="50" height="50" relative="1" as="geometry">
            <mxPoint x="-250" y="2520" as="sourcePoint" />
            <mxPoint x="-412" y="2350" as="targetPoint" />
          </mxGeometry>
        </mxCell>
        <mxCell id="JXLY37pRRViEFZyJxpVm-126" value="" style="endArrow=none;html=1;rounded=0;strokeWidth=5;entryX=0.723;entryY=0.035;entryDx=0;entryDy=0;exitX=0.075;exitY=0.758;exitDx=0;exitDy=0;exitPerimeter=0;entryPerimeter=0;" edge="1" parent="1" source="JXLY37pRRViEFZyJxpVm-54" target="JXLY37pRRViEFZyJxpVm-62">
          <mxGeometry width="50" height="50" relative="1" as="geometry">
            <mxPoint x="-61" y="2174" as="sourcePoint" />
            <mxPoint x="-279" y="1920" as="targetPoint" />
          </mxGeometry>
        </mxCell>
        <mxCell id="JXLY37pRRViEFZyJxpVm-127" value="" style="endArrow=none;html=1;rounded=0;strokeWidth=5;entryX=0.972;entryY=0.719;entryDx=0;entryDy=0;exitX=0;exitY=0;exitDx=0;exitDy=0;entryPerimeter=0;" edge="1" parent="1" source="JXLY37pRRViEFZyJxpVm-66" target="JXLY37pRRViEFZyJxpVm-54">
          <mxGeometry width="50" height="50" relative="1" as="geometry">
            <mxPoint x="605" y="2210" as="sourcePoint" />
            <mxPoint x="-160" y="2444" as="targetPoint" />
          </mxGeometry>
        </mxCell>
        <mxCell id="JXLY37pRRViEFZyJxpVm-128" value="" style="endArrow=none;html=1;rounded=0;strokeWidth=5;entryX=0.281;entryY=0.951;entryDx=0;entryDy=0;entryPerimeter=0;exitX=0.726;exitY=0.047;exitDx=0;exitDy=0;exitPerimeter=0;" edge="1" parent="1" source="JXLY37pRRViEFZyJxpVm-78" target="JXLY37pRRViEFZyJxpVm-66">
          <mxGeometry width="50" height="50" relative="1" as="geometry">
            <mxPoint x="459" y="2414" as="sourcePoint" />
            <mxPoint x="241" y="2160" as="targetPoint" />
          </mxGeometry>
        </mxCell>
        <mxCell id="JXLY37pRRViEFZyJxpVm-129" value="" style="endArrow=none;html=1;rounded=0;strokeWidth=5;entryX=1;entryY=1;entryDx=0;entryDy=0;exitX=0;exitY=0;exitDx=0;exitDy=0;" edge="1" parent="1" source="JXLY37pRRViEFZyJxpVm-82" target="JXLY37pRRViEFZyJxpVm-66">
          <mxGeometry width="50" height="50" relative="1" as="geometry">
            <mxPoint x="1389" y="2580" as="sourcePoint" />
            <mxPoint x="1640" y="2364" as="targetPoint" />
          </mxGeometry>
        </mxCell>
        <mxCell id="JXLY37pRRViEFZyJxpVm-130" value="" style="endArrow=none;html=1;rounded=0;strokeWidth=5;entryX=0.204;entryY=0.906;entryDx=0;entryDy=0;entryPerimeter=0;" edge="1" parent="1" source="JXLY37pRRViEFZyJxpVm-86" target="JXLY37pRRViEFZyJxpVm-78">
          <mxGeometry width="50" height="50" relative="1" as="geometry">
            <mxPoint x="310" y="2966" as="sourcePoint" />
            <mxPoint x="561" y="2750" as="targetPoint" />
          </mxGeometry>
        </mxCell>
        <mxCell id="JXLY37pRRViEFZyJxpVm-131" value="" style="endArrow=none;html=1;rounded=0;strokeWidth=5;entryX=1;entryY=1;entryDx=0;entryDy=0;exitX=0.34;exitY=0;exitDx=0;exitDy=0;exitPerimeter=0;" edge="1" parent="1" source="JXLY37pRRViEFZyJxpVm-90" target="JXLY37pRRViEFZyJxpVm-78">
          <mxGeometry width="50" height="50" relative="1" as="geometry">
            <mxPoint x="950" y="3060" as="sourcePoint" />
            <mxPoint x="1081" y="2819" as="targetPoint" />
          </mxGeometry>
        </mxCell>
        <mxCell id="JXLY37pRRViEFZyJxpVm-141" value="" style="endArrow=none;html=1;rounded=0;strokeWidth=11;" edge="1" parent="1">
          <mxGeometry width="50" height="50" relative="1" as="geometry">
            <mxPoint x="-2640" y="4190" as="sourcePoint" />
            <mxPoint x="2920" y="4210" as="targetPoint" />
          </mxGeometry>
        </mxCell>
        <mxCell id="JXLY37pRRViEFZyJxpVm-142" value="" style="endArrow=none;html=1;rounded=0;strokeWidth=11;" edge="1" parent="1">
          <mxGeometry width="50" height="50" relative="1" as="geometry">
            <mxPoint x="-2680" y="4780" as="sourcePoint" />
            <mxPoint x="2860" y="4770" as="targetPoint" />
          </mxGeometry>
        </mxCell>
        <mxCell id="JXLY37pRRViEFZyJxpVm-182" value="" style="ellipse;whiteSpace=wrap;html=1;" vertex="1" parent="1">
          <mxGeometry x="-1780" y="4380" width="470" height="270" as="geometry" />
        </mxCell>
        <mxCell id="JXLY37pRRViEFZyJxpVm-183" value="" style="endArrow=none;html=1;rounded=0;entryX=1;entryY=0.5;entryDx=0;entryDy=0;exitX=0;exitY=0.5;exitDx=0;exitDy=0;" edge="1" source="JXLY37pRRViEFZyJxpVm-182" target="JXLY37pRRViEFZyJxpVm-182" parent="1">
          <mxGeometry width="50" height="50" relative="1" as="geometry">
            <mxPoint x="-1770" y="4520" as="sourcePoint" />
            <mxPoint x="-1520" y="4480" as="targetPoint" />
          </mxGeometry>
        </mxCell>
        <mxCell id="JXLY37pRRViEFZyJxpVm-184" value="&lt;span style=&quot;font-size: 80px;&quot;&gt;S&lt;/span&gt;" style="text;html=1;align=center;verticalAlign=middle;whiteSpace=wrap;rounded=0;" vertex="1" parent="1">
          <mxGeometry x="-1620" y="4420" width="150" height="60" as="geometry" />
        </mxCell>
        <mxCell id="JXLY37pRRViEFZyJxpVm-185" value="&lt;span style=&quot;font-size: 80px;&quot;&gt;100&lt;/span&gt;" style="text;html=1;align=center;verticalAlign=middle;whiteSpace=wrap;rounded=0;" vertex="1" parent="1">
          <mxGeometry x="-1620" y="4550" width="150" height="60" as="geometry" />
        </mxCell>
        <mxCell id="JXLY37pRRViEFZyJxpVm-190" value="" style="ellipse;whiteSpace=wrap;html=1;" vertex="1" parent="1">
          <mxGeometry x="-1170" y="4380" width="470" height="270" as="geometry" />
        </mxCell>
        <mxCell id="JXLY37pRRViEFZyJxpVm-191" value="" style="endArrow=none;html=1;rounded=0;entryX=1;entryY=0.5;entryDx=0;entryDy=0;exitX=0;exitY=0.5;exitDx=0;exitDy=0;" edge="1" source="JXLY37pRRViEFZyJxpVm-190" target="JXLY37pRRViEFZyJxpVm-190" parent="1">
          <mxGeometry width="50" height="50" relative="1" as="geometry">
            <mxPoint x="-1160" y="4520" as="sourcePoint" />
            <mxPoint x="-910" y="4480" as="targetPoint" />
          </mxGeometry>
        </mxCell>
        <mxCell id="JXLY37pRRViEFZyJxpVm-192" value="&lt;span style=&quot;font-size: 80px;&quot;&gt;S&lt;/span&gt;" style="text;html=1;align=center;verticalAlign=middle;whiteSpace=wrap;rounded=0;" vertex="1" parent="1">
          <mxGeometry x="-1010" y="4420" width="150" height="60" as="geometry" />
        </mxCell>
        <mxCell id="JXLY37pRRViEFZyJxpVm-193" value="&lt;span style=&quot;font-size: 80px;&quot;&gt;100&lt;/span&gt;" style="text;html=1;align=center;verticalAlign=middle;whiteSpace=wrap;rounded=0;" vertex="1" parent="1">
          <mxGeometry x="-1010" y="4550" width="150" height="60" as="geometry" />
        </mxCell>
        <mxCell id="JXLY37pRRViEFZyJxpVm-194" value="" style="ellipse;whiteSpace=wrap;html=1;" vertex="1" parent="1">
          <mxGeometry x="-610" y="4410" width="470" height="270" as="geometry" />
        </mxCell>
        <mxCell id="JXLY37pRRViEFZyJxpVm-195" value="" style="endArrow=none;html=1;rounded=0;entryX=1;entryY=0.5;entryDx=0;entryDy=0;exitX=0;exitY=0.5;exitDx=0;exitDy=0;" edge="1" source="JXLY37pRRViEFZyJxpVm-194" target="JXLY37pRRViEFZyJxpVm-194" parent="1">
          <mxGeometry width="50" height="50" relative="1" as="geometry">
            <mxPoint x="-600" y="4550" as="sourcePoint" />
            <mxPoint x="-350" y="4510" as="targetPoint" />
          </mxGeometry>
        </mxCell>
        <mxCell id="JXLY37pRRViEFZyJxpVm-196" value="&lt;span style=&quot;font-size: 80px;&quot;&gt;S&lt;/span&gt;" style="text;html=1;align=center;verticalAlign=middle;whiteSpace=wrap;rounded=0;" vertex="1" parent="1">
          <mxGeometry x="-450" y="4450" width="150" height="60" as="geometry" />
        </mxCell>
        <mxCell id="JXLY37pRRViEFZyJxpVm-197" value="&lt;span style=&quot;font-size: 80px;&quot;&gt;50&lt;/span&gt;" style="text;html=1;align=center;verticalAlign=middle;whiteSpace=wrap;rounded=0;" vertex="1" parent="1">
          <mxGeometry x="-450" y="4580" width="150" height="60" as="geometry" />
        </mxCell>
        <mxCell id="JXLY37pRRViEFZyJxpVm-198" value="" style="ellipse;whiteSpace=wrap;html=1;" vertex="1" parent="1">
          <mxGeometry x="-30" y="4430" width="470" height="270" as="geometry" />
        </mxCell>
        <mxCell id="JXLY37pRRViEFZyJxpVm-199" value="" style="endArrow=none;html=1;rounded=0;entryX=1;entryY=0.5;entryDx=0;entryDy=0;exitX=0;exitY=0.5;exitDx=0;exitDy=0;" edge="1" source="JXLY37pRRViEFZyJxpVm-198" target="JXLY37pRRViEFZyJxpVm-198" parent="1">
          <mxGeometry width="50" height="50" relative="1" as="geometry">
            <mxPoint x="-20" y="4570" as="sourcePoint" />
            <mxPoint x="230" y="4530" as="targetPoint" />
          </mxGeometry>
        </mxCell>
        <mxCell id="JXLY37pRRViEFZyJxpVm-200" value="&lt;span style=&quot;font-size: 80px;&quot;&gt;z&lt;/span&gt;" style="text;html=1;align=center;verticalAlign=middle;whiteSpace=wrap;rounded=0;" vertex="1" parent="1">
          <mxGeometry x="130" y="4470" width="150" height="60" as="geometry" />
        </mxCell>
        <mxCell id="JXLY37pRRViEFZyJxpVm-201" value="&lt;span style=&quot;font-size: 80px;&quot;&gt;200&lt;/span&gt;" style="text;html=1;align=center;verticalAlign=middle;whiteSpace=wrap;rounded=0;" vertex="1" parent="1">
          <mxGeometry x="130" y="4600" width="150" height="60" as="geometry" />
        </mxCell>
      </root>
    </mxGraphModel>
  </diagram>
</mxfile>
